<?xml version="1.0" encoding="UTF-8" standalone="no"?>
<svg
   viewBox="0 0 36.508 41.361"
   version="1.1"
   id="svg7"
   sodipodi:docname="rami_logo_color.svg"
   inkscape:version="1.3 (0e150ed, 2023-07-21)"
   xmlns:inkscape="http://www.inkscape.org/namespaces/inkscape"
   xmlns:sodipodi="http://sodipodi.sourceforge.net/DTD/sodipodi-0.dtd"
   xmlns:xlink="http://www.w3.org/1999/xlink"
   xmlns="http://www.w3.org/2000/svg"
   xmlns:svg="http://www.w3.org/2000/svg">
  <sodipodi:namedview
     id="namedview7"
     pagecolor="#ffffff"
     bordercolor="#000000"
     borderopacity="0.25"
     inkscape:showpageshadow="2"
     inkscape:pageopacity="0.0"
     inkscape:pagecheckerboard="0"
     inkscape:deskcolor="#d1d1d1"
     inkscape:zoom="5.7058582"
     inkscape:cx="18.314511"
     inkscape:cy="20.6805"
     inkscape:window-width="1696"
     inkscape:window-height="449"
     inkscape:window-x="0"
     inkscape:window-y="38"
     inkscape:window-maximized="0"
     inkscape:current-layer="svg7" />
  <defs
     id="defs5">
    <style
       id="style1">.i{fill:url(#f);}.j{fill:url(#g);}.k{fill:url(#h);}</style>
    <linearGradient
       id="f"
       x1="8.69"
       y1="-61.703"
       x2="27.815"
       y2="-92.933"
       gradientTransform="translate(0 -56.639) scale(1 -1)"
       gradientUnits="userSpaceOnUse">
      <stop
         offset="0"
         stop-color="#afff3b"
         id="stop1" />
      <stop
         offset=".309"
         stop-color="#75f55f"
         id="stop2" />
      <stop
         offset=".629"
         stop-color="#3feb81"
         id="stop3" />
      <stop
         offset=".869"
         stop-color="#1ee697"
         id="stop4" />
      <stop
         offset="1"
         stop-color="#12e49f"
         id="stop5" />
    </linearGradient>
    <linearGradient
       id="g"
       x1="8.536"
       y1="-62.645"
       x2="28.63"
       y2="-92.419"
       xlink:href="#f" />
    <linearGradient
       id="h"
       x1="-.112"
       y1="-67.094"
       x2="20.577"
       y2="-96.811"
       xlink:href="#f" />
  </defs>
  <g
     id="a" />
  <g
     id="b"
     inkscape:export-filename="rami_logo_c.png.png"
     inkscape:export-xdpi="1024"
     inkscape:export-ydpi="1024">
    <g
       id="c">
      <g
         id="d">
        <g
           id="e">
          <g
             id="g7">
            <path
               class="i"
               d="M7.129,35.293c-.372-.162-.553-.224-.718-.315-1.891-1.041-3.772-2.1-5.674-3.121C.217,31.578-.002,31.238,0,30.636,.017,23.998,.016,17.36,0,10.722c-.001-.586,.18-.937,.714-1.23C6.285,6.431,11.847,3.354,17.394,.251c.646-.361,1.145-.316,1.767,.032,5.514,3.08,11.039,6.142,16.575,9.181,.571,.314,.774,.672,.772,1.315-.021,6.598-.022,13.196,0,19.794,.002,.651-.214,1.014-.789,1.309-1.28,.657-2.526,1.378-3.78,2.085-.365,.206-.683,.321-1.108,.08-2.224-1.259-4.614-2.568-6.97-3.874,.823-.446,.607-.325,.823-.446,1.151-.644,2.305-1.284,3.471-1.9,.786-.415,1.165-1.018,1.16-1.926-.02-3.519-.018-7.038-.002-10.557,.004-.861-.375-1.431-1.109-1.832-2.982-1.628-5.961-3.263-8.937-4.903-.689-.38-1.364-.395-2.053-.016-3.014,1.654-6.027,3.309-9.046,4.955-.706,.385-1.027,.959-1.027,1.756,.002,3.837-.008,7.675-.011,11.512-.002,2.755,0,5.51,0,8.475v.002h0Z"
               id="path5" />
            <path
               class="j"
               d="M24.286,20.748c0,.918-.016,1.836,.006,2.754,.012,.492-.154,.811-.605,1.051-1.479,.788-2.944,1.602-4.401,2.429-.43,.244-.79,.24-1.222-.006-1.734-.985-3.479-1.953-5.235-2.899-.49-.264-.652-.62-.651-1.156,.005-1.716-.019-3.431-.051-5.147-.008-.445,.123-.747,.533-.967,1.651-.889,3.294-1.792,4.929-2.711,.426-.24,.794-.261,1.229-.016,1.634,.92,3.277,1.824,4.929,2.712,.408,.22,.552,.517,.545,.962-.018,.997-.006,1.996-.006,2.994Z"
               id="path6" />
            <path
               class="k"
               d="M12.127,29.977c4.419,2.458,8.951,4.974,13.399,7.448-.362,.241-.572,.403-.801,.53-1.886,1.049-3.79,2.066-5.655,3.151-.601,.349-1.062,.334-1.649-.01-1.517-.888-3.066-1.722-4.611-2.562-.413-.225-.695-.47-.689-1.004,.026-2.318,.017-4.637,.03-6.955,0-.105-.023-.286-.023-.597h0Z"
               id="path7" />
          </g>
        </g>
      </g>
    </g>
  </g>
</svg>
